<svg width="56" height="56" viewBox="0 0 56 56" fill="none" xmlns="http://www.w3.org/2000/svg">
<g filter="url(#filter0_d_38_599)">
<rect x="6" y="4" width="44" height="44" rx="22" fill="#FCFCFC"/>
<g clip-path="url(#clip0_38_599)">
<path d="M24.0838 32.1878L24.0727 32.1955L24.062 32.2037C24.0324 32.2265 24.0089 32.2322 23.9915 32.2333C23.9717 32.2345 23.9474 32.2301 23.922 32.2167C23.87 32.1891 23.8335 32.1359 23.8335 32.0667V19.9333C23.8335 19.8641 23.87 19.8109 23.922 19.7833C23.9474 19.7699 23.9717 19.7655 23.9915 19.7667C24.0089 19.7678 24.0324 19.7735 24.062 19.7963L24.0732 19.8049L24.0848 19.8129L32.9182 25.8462L32.9181 25.8462L32.9228 25.8494C32.98 25.8875 33.0002 25.9376 33.0002 25.9833C33.0002 26.0291 32.98 26.0792 32.9228 26.1173L32.9228 26.1173L32.9171 26.1212L24.0838 32.1878Z" fill="#171719" stroke="#171719"/>
</g>
</g>
<defs>
<filter id="filter0_d_38_599" x="0.5" y="0.7" width="55" height="55" filterUnits="userSpaceOnUse" color-interpolation-filters="sRGB">
<feFlood flood-opacity="0" result="BackgroundImageFix"/>
<feColorMatrix in="SourceAlpha" type="matrix" values="0 0 0 0 0 0 0 0 0 0 0 0 0 0 0 0 0 0 127 0" result="hardAlpha"/>
<feOffset dy="2.2"/>
<feGaussianBlur stdDeviation="2.75"/>
<feComposite in2="hardAlpha" operator="out"/>
<feColorMatrix type="matrix" values="0 0 0 0 0 0 0 0 0 0 0 0 0 0 0 0 0 0 0.1 0"/>
<feBlend mode="normal" in2="BackgroundImageFix" result="effect1_dropShadow_38_599"/>
<feBlend mode="normal" in="SourceGraphic" in2="effect1_dropShadow_38_599" result="shape"/>
</filter>
<clipPath id="clip0_38_599">
<rect width="16" height="16" fill="white" transform="translate(20 18)"/>
</clipPath>
</defs>
</svg>
