<svg width="52" height="52" viewBox="0 0 52 52" fill="none" xmlns="http://www.w3.org/2000/svg">
<g filter="url(#filter0_d_38_589)">
<rect x="6" y="4" width="40" height="40" rx="20" fill="#FCFCFC"/>
<g clip-path="url(#clip0_38_589)">
<path d="M22.0838 30.1878L22.0727 30.1955L22.062 30.2037C22.0324 30.2265 22.0089 30.2322 21.9915 30.2333C21.9717 30.2345 21.9474 30.2301 21.922 30.2167C21.87 30.1891 21.8335 30.1359 21.8335 30.0667V17.9333C21.8335 17.8641 21.87 17.8109 21.922 17.7833C21.9474 17.7699 21.9717 17.7655 21.9915 17.7667C22.0089 17.7678 22.0324 17.7735 22.062 17.7963L22.0732 17.8049L22.0848 17.8129L30.9182 23.8462L30.9181 23.8462L30.9228 23.8494C30.98 23.8875 31.0002 23.9376 31.0002 23.9833C31.0002 24.0291 30.98 24.0792 30.9228 24.1173L30.9228 24.1173L30.9171 24.1212L22.0838 30.1878Z" fill="#171719" stroke="#171719"/>
</g>
</g>
<defs>
<filter id="filter0_d_38_589" x="0.5" y="0.7" width="51" height="51" filterUnits="userSpaceOnUse" color-interpolation-filters="sRGB">
<feFlood flood-opacity="0" result="BackgroundImageFix"/>
<feColorMatrix in="SourceAlpha" type="matrix" values="0 0 0 0 0 0 0 0 0 0 0 0 0 0 0 0 0 0 127 0" result="hardAlpha"/>
<feOffset dy="2.2"/>
<feGaussianBlur stdDeviation="2.75"/>
<feComposite in2="hardAlpha" operator="out"/>
<feColorMatrix type="matrix" values="0 0 0 0 0 0 0 0 0 0 0 0 0 0 0 0 0 0 0.1 0"/>
<feBlend mode="normal" in2="BackgroundImageFix" result="effect1_dropShadow_38_589"/>
<feBlend mode="normal" in="SourceGraphic" in2="effect1_dropShadow_38_589" result="shape"/>
</filter>
<clipPath id="clip0_38_589">
<rect width="16" height="16" fill="white" transform="translate(18 16)"/>
</clipPath>
</defs>
</svg>
